<svg id="Layer_2" data-name="Layer 2" xmlns="http://www.w3.org/2000/svg" viewBox="0 0 774.01 1558.43"><defs><style>.cls-1{fill:none;stroke:#fff;stroke-miterlimit:10;stroke-width:10px;}.cls-2{font-size:56.03px;fill:#fff;font-family:Arial-BoldItalicMT, Arial;font-weight:700;font-style:italic;}</style></defs><title>Cannis-transparent</title><polyline class="cls-1" points="700.01 0 700.01 1086 650.01 1086 650.01 1259"/><polyline class="cls-1" points="700.01 1086 741.01 1086 741.01 1259"/><text class="cls-2" transform="translate(725.95 1279.78) rotate(90) scale(0.65 1)">Canis Familiaris</text><text class="cls-2" transform="translate(632.07 1280.05) rotate(90) scale(0.65 1)">Canis Lupus</text><polyline class="cls-1" points="108.01 0 108.01 292 37.48 292 37.48 403"/><polyline class="cls-1" points="108.01 292 141.01 292 141.01 461 183.01 461 183.01 591"/><polyline class="cls-1" points="145.01 461 108.01 461 108.01 591"/><text class="cls-2" transform="translate(21.09 418.78) rotate(90) scale(0.65 1)">Chelodina longicollis</text><text class="cls-2" transform="translate(92.09 601.11) rotate(90) scale(0.65 1)">Chelodina canni</text><text class="cls-2" transform="translate(169.09 601.49) rotate(90) scale(0.65 1)">Chelodina gunaleni</text></svg>