<svg xmlns="http://www.w3.org/2000/svg" xmlns:xlink="http://www.w3.org/1999/xlink" viewBox="0 0 3876.63 6880.14"><defs><style>.cls-1,.cls-5{fill:none;}.cls-2{clip-path:url(#clip-path);}.cls-3{font-size:22px;}.cls-11,.cls-13,.cls-3,.cls-6,.cls-8{fill:#fff;font-family:Arial-BoldItalicMT, Arial;font-weight:700;font-style:italic;}.cls-4{letter-spacing:-0.04em;}.cls-5{stroke:#fff;stroke-miterlimit:10;stroke-width:5px;}.cls-6{font-size:25px;}.cls-7{letter-spacing:-0.04em;}.cls-8{font-size:25px;}.cls-9{letter-spacing:-0.04em;}.cls-10{letter-spacing:-0.04em;}.cls-11{font-size:21.11px;}.cls-12{letter-spacing:-0.04em;}.cls-13{font-size:21.11px;}.cls-14{letter-spacing:-0.04em;}</style><clipPath id="clip-path" transform="translate(1017.33 548.61)"><rect class="cls-1" width="1920" height="8192"/></clipPath></defs><title>Phylogenetic-Tree-transparent</title><g id="Layer_5" data-name="Layer 5"><g class="cls-2"><text class="cls-3" transform="translate(1659.22 1900.21) rotate(90)">Hypostomus plecostomus</text><text class="cls-3" transform="translate(2191.25 1360.23) rotate(90)">ob fus</text><text class="cls-3" transform="translate(1903.25 2277.34) rotate(90)">Ompok Pabda</text><text class="cls-3" transform="translate(2408.25 1722.34) rotate(90)">Alces<tspan class="cls-4" x="58.71" y="0"> </tspan><tspan x="64" y="0">Alces</tspan></text><text class="cls-3" transform="translate(1728.25 1526.34) rotate(90)">Alouatta</text><text class="cls-3" transform="translate(2566.25 1645.26) rotate(90)">Alouatta</text><text class="cls-3" transform="translate(2656.25 1578.26) rotate(90)">Ajaja<tspan class="cls-4" x="52.58" y="0"> </tspan><tspan x="57.88" y="0">Ajaja</tspan></text><text class="cls-3" transform="translate(1822.25 2371.26) rotate(90)">Alouatta</text><text class="cls-3" transform="translate(1977.25 1729.26) rotate(90)">Amia Calva</text><text class="cls-3" transform="translate(2125.25 1475.26) rotate(90)">Alouatta</text><text class="cls-3" transform="translate(1705.22 1995.21) rotate(90)">Mus musculus</text><text class="cls-3" transform="translate(1252.64 1627.77) rotate(90)">Lorem Ipsum</text><text class="cls-3" transform="translate(1332.22 1626.18) rotate(90)">Gorilla Gorilla</text><text class="cls-3" transform="translate(1397.22 1668.18) rotate(90)">Chibaku <tspan class="cls-4" x="92.9" y="0">T</tspan><tspan x="105.52" y="0">ensei</tspan></text><text class="cls-3" transform="translate(1472.22 1668.22) rotate(90)">Ara<tspan class="cls-4" x="36.68" y="0"> </tspan><tspan x="41.98" y="0">Ara</tspan></text><text class="cls-3" transform="translate(1550.22 1873.22) rotate(90)">Homo sapien</text><text class="cls-3" transform="translate(1614.22 1873.22) rotate(90)">Omaewamo Shindeiru</text><polyline class="cls-5" points="1902.83 549.11 1902.83 759.11 1320.83 759.11 1320.83 1083.11 1169.83 1083.11 1169.83 1170.11 986.83 1170.11"/><polyline class="cls-5" points="1169.83 1170.11 1369.83 1170.11 1369.83 1288.11 1296.83 1288.11 1296.83 1438.11 1256.83 1438.11 1256.83 1614.11"/><polyline class="cls-5" points="1296.83 1438.11 1334.83 1438.11 1334.83 1614.11"/><polyline class="cls-5" points="1369.83 1288.11 1444.83 1288.11 1444.83 1475.11 1406.83 1475.11 1406.83 1661.11"/><polyline class="cls-5" points="1444.83 1475.11 1479.83 1475.11 1479.83 1661.11"/><polyline class="cls-5" points="1315.83 1083.11 1695.83 1083.11 1695.83 1243.11 1620.83 1243.11 1620.83 1414.11 1552.83 1414.11 1552.83 1861.11"/><line class="cls-5" x1="1620.83" y1="1414.11" x2="1620.83" y2="1861.11"/><polyline class="cls-5" points="1620.83 1537.11 1662.83 1537.11 1662.83 1893.11"/><polyline class="cls-5" points="1662.83 1661.11 1792.83 1661.11 1792.83 1741.11 1707.83 1741.11 1707.83 1985.11"/><polyline class="cls-5" points="1707.83 1823.11 1782.83 1823.11 1782.83 2039.11"/><polyline class="cls-5" points="1792.83 1741.11 1902.83 1741.11 1902.83 1903.11 1829.83 1903.11 1829.83 2126.11 1902.83 2126.11 1902.83 2271.11"/><polyline class="cls-5" points="1902.83 1903.11 1986.83 1903.11 1986.83 2182.11"/><line class="cls-5" x1="1829.83" y1="2126.11" x2="1829.83" y2="2361.11"/><polyline class="cls-5" points="1695.83 1243.11 1799.83 1243.11 1799.83 1323.11 1727.83 1323.11 1727.83 1519.11"/><polyline class="cls-5" points="1799.83 1323.11 1871.83 1323.11 1871.83 1438.11 1828.83 1438.11 1828.83 1597.11"/><polyline class="cls-5" points="1871.83 1438.11 1914.83 1438.11 1914.83 1597.11"/><polyline class="cls-5" points="1902.83 759.11 2280.83 759.11 2280.83 1083.11 2078.83 1083.11 2078.83 1226.11 1986.83 1226.11 1986.83 1722.11"/><polyline class="cls-5" points="2280.83 1083.11 2574.83 1083.11 2574.83 1637.11"/><polyline class="cls-5" points="2574.83 1226.11 2710.83 1226.11 2710.83 1367.11 2657.83 1367.11 2657.83 1568.11"/><polyline class="cls-5" points="2710.83 1367.11 2779.83 1367.11 2779.83 1568.11"/><polyline class="cls-5" points="2574.83 1360.11 2358.83 1360.11 2358.83 1450.11 2214.83 1450.11 2214.83 1578.11 2313.83 1578.11 2313.83 1686.11 2228.83 1686.11 2228.83 1785.11 2175.83 1785.11 2175.83 1903.11"/><polyline class="cls-5" points="2358.83 1450.11 2477.83 1450.11 2477.83 1580.11 2417.83 1580.11 2417.83 1715.11"/><polyline class="cls-5" points="2477.83 1582.11 2518.83 1582.11 2518.83 1715.11"/><polyline class="cls-5" points="2214.83 1578.11 2116.83 1578.11 2116.83 1899.11"/><polyline class="cls-5" points="2228.83 1785.11 2271.83 1785.11 2271.83 1903.11"/><polyline class="cls-5" points="2313.83 1686.11 2358.83 1686.11 2358.83 1903.11"/><polyline class="cls-5" points="1986.83 1323.11 2091.83 1323.11 2091.83 1428.11 2061.83 1428.11 2061.83 1506.11"/><polyline class="cls-5" points="2091.83 1428.11 2131.83 1428.11 2131.83 1471.61"/><polyline class="cls-5" points="1986.83 1537.11 2023.83 1537.11 2023.83 1753.11"/><polyline class="cls-5" points="2023.83 1597.11 2055.83 1597.11 2055.83 1802.11"/><polyline class="cls-5" points="2078.83 1226.11 2239.83 1226.11 2239.83 1270.7 2199.83 1270.7 2199.83 1347.61"/><polyline class="cls-5" points="2239.83 1270.11 2288.83 1270.11 2288.83 1315.61"/><text class="cls-3" transform="translate(1659.22 1900.21) rotate(90)">Hypostomus plecostomus</text><text class="cls-3" transform="translate(1776.25 2042.23) rotate(90)">Ara<tspan class="cls-4" x="36.68" y="0"> </tspan><tspan x="41.98" y="0">Ara</tspan></text><text class="cls-3" transform="translate(1977.25 2192.43) rotate(90)">Gorilla Gorilla</text><text class="cls-3" transform="matrix(-0.02, 1, -1, -0.02, 2284.97, 1336.14)">Ara<tspan class="cls-4" x="36.68" y="0"> </tspan><tspan x="41.98" y="0">Ara</tspan></text><text class="cls-3" transform="translate(2166.25 1913.28) rotate(90)">Chibaku <tspan class="cls-4" x="92.9" y="0">T</tspan><tspan x="105.52" y="0">ensei</tspan></text><text class="cls-3" transform="translate(2056.25 1812.77) rotate(90)">Mus musculus</text><text class="cls-3" transform="translate(2056.25 1506.23) rotate(90)">Eda fa</text><text class="cls-3" transform="translate(1822.25 1606.16) rotate(90)">Eda fa</text><text class="cls-3" transform="translate(1915.25 1606.43) rotate(90)">Gorilla Gorilla</text><text class="cls-3" transform="translate(2264.25 1913.77) rotate(90)">Mus musculus</text><text class="cls-3" transform="translate(2015.25 1766.8) rotate(90)">Lorem Ipsum</text><text class="cls-3" transform="translate(2519.25 1722.34) rotate(90)">Hypostomus plecostomus</text><text class="cls-3" transform="translate(2359.25 1913.91) rotate(90)">Ompok Pabda</text><text class="cls-3" transform="translate(2773.25 1581.91) rotate(90)">Anoplogaster</text><text class="cls-6" transform="matrix(0, 0.88, -1, 0, 901.56, 2092.96)">ob fus</text><text class="cls-6" transform="matrix(0, 0.88, -1, 0, 1148.14, 2455.21)">Alces<tspan class="cls-7" x="66.71" y="0"> </tspan><tspan x="72.73" y="0">Alces</tspan></text><text class="cls-6" transform="matrix(0, 0.88, -1, 0, 1327.68, 2378.09)">Alouatta</text><text class="cls-6" transform="matrix(0, 0.88, -1, 0, 1429.94, 2311.07)">Ajaja<tspan class="cls-7" x="59.75" y="0"> </tspan><tspan x="65.77" y="0">Ajaja</tspan></text><text class="cls-6" transform="matrix(0, 0.88, -1, 0, 658.4, 2462.12)">Amia Calva</text><text class="cls-6" transform="matrix(0, 0.88, -1, 0, 826.57, 2208.03)">Alouatta</text><polyline class="cls-5" points="573.83 1491.61 1003.35 1491.61 1003.35 1815.73 773.82 1815.73 773.82 1958.79 669.28 1958.79 669.28 2454.98"/><polyline class="cls-5" points="1003.35 1815.73 1337.42 1815.73 1337.42 2369.94"/><polyline class="cls-5" points="1337.42 1958.79 1491.96 1958.79 1491.96 2099.84 1431.73 2099.84 1431.73 2300.92"/><polyline class="cls-5" points="1491.96 2099.84 1570.36 2099.84 1570.36 2300.92"/><polyline class="cls-5" points="1337.42 2092.84 1091.98 2092.84 1091.98 2182.87 928.36 2182.87 928.36 2310.92 1040.85 2310.92 1040.85 2418.96 944.26 2418.96 944.26 2518 884.04 2518 884.04 2636.05"/><polyline class="cls-5" points="1091.98 2182.87 1227.2 2182.87 1227.2 2312.92 1159.02 2312.92 1159.02 2447.97"/><polyline class="cls-5" points="1227.2 2314.92 1273.79 2314.92 1273.79 2447.97"/><polyline class="cls-5" points="928.36 2310.92 817 2310.92 817 2632.04"/><polyline class="cls-5" points="944.26 2518 993.12 2518 993.12 2636.05"/><polyline class="cls-5" points="1040.85 2418.96 1091.98 2418.96 1091.98 2636.05"/><polyline class="cls-5" points="669.28 2055.82 788.59 2055.82 788.59 2160.86 754.5 2160.86 754.5 2238.89"/><polyline class="cls-5" points="788.59 2160.86 834.04 2160.86 834.04 2204.38"/><polyline class="cls-5" points="669.28 2269.91 711.32 2269.91 711.32 2485.99"/><polyline class="cls-5" points="773.82 1958.79 956.76 1958.79 956.76 2003.4 911.31 2003.4 911.31 2080.33"/><polyline class="cls-5" points="956.76 2002.8 1012.44 2002.8 1012.44 2048.32"/><text class="cls-8" transform="matrix(-0.02, 0.88, -1, -0.02, 1008.06, 2068.86)">Ara<tspan class="cls-9" x="41.68" y="0"> </tspan><tspan x="47.7" y="0">Ara</tspan></text><text class="cls-6" transform="matrix(0, 0.88, -1, 0, 873.16, 2646.22)">Chibaku <tspan class="cls-10" x="105.56" y="0">T</tspan><tspan x="119.9" y="0">ensei</tspan></text><text class="cls-6" transform="matrix(0, 0.88, -1, 0, 748.17, 2545.67)">Mus musculus</text><text class="cls-6" transform="matrix(0, 0.88, -1, 0, 748.17, 2239.01)">Eda fa</text><text class="cls-6" transform="matrix(0, 0.88, -1, 0, 984.52, 2646.7)">Mus musculus</text><text class="cls-6" transform="matrix(0, 0.88, -1, 0, 701.58, 2499.68)">Lorem Ipsum</text><text class="cls-6" transform="matrix(0, 0.88, -1, 0, 1274.27, 2455.21)">Hypostomus plecostomus</text><text class="cls-6" transform="matrix(0, 0.88, -1, 0, 1092.46, 2646.84)">Ompok Pabda</text><text class="cls-6" transform="matrix(0, 0.88, -1, 0, 1562.89, 2314.72)">Anoplogaster</text><text class="cls-3" transform="translate(2328.04 2897.87) rotate(90)">Hypostomus plecostomus</text><text class="cls-3" transform="translate(2572.08 3275) rotate(90)">Ompok Pabda</text><text class="cls-3" transform="translate(2397.08 2524) rotate(90)">Alouatta</text><text class="cls-3" transform="translate(2491.08 3368.92) rotate(90)">Alouatta</text><text class="cls-3" transform="translate(2374.04 2992.87) rotate(90)">Mus musculus</text><text class="cls-3" transform="translate(2219.04 2870.89) rotate(90)">Homo sapien</text><text class="cls-3" transform="translate(2283.04 2870.89) rotate(90)">Omaewamo Shindeiru</text><polyline class="cls-5" points="1984.65 2080.77 2364.65 2080.77 2364.65 2240.77 2289.65 2240.77 2289.65 2411.77 2221.65 2411.77 2221.65 2858.77"/><line class="cls-5" x1="2289.65" y1="2411.77" x2="2289.65" y2="2858.77"/><polyline class="cls-5" points="2289.65 2534.77 2331.65 2534.77 2331.65 2890.77"/><polyline class="cls-5" points="2331.65 2658.77 2461.65 2658.77 2461.65 2738.77 2376.65 2738.77 2376.65 2982.77"/><polyline class="cls-5" points="2376.65 2820.77 2451.65 2820.77 2451.65 3036.77"/><polyline class="cls-5" points="2461.65 2738.77 2571.65 2738.77 2571.65 2900.77 2498.65 2900.77 2498.65 3123.77 2571.65 3123.77 2571.65 3268.77"/><polyline class="cls-5" points="2571.65 2900.77 2655.65 2900.77 2655.65 3179.77"/><line class="cls-5" x1="2498.65" y1="3123.77" x2="2498.65" y2="3358.77"/><polyline class="cls-5" points="2364.65 2240.77 2468.65 2240.77 2468.65 2320.77 2396.65 2320.77 2396.65 2516.77"/><polyline class="cls-5" points="2468.65 2320.77 2540.65 2320.77 2540.65 2435.77 2497.65 2435.77 2497.65 2594.77"/><polyline class="cls-5" points="2540.65 2435.77 2583.65 2435.77 2583.65 2594.77"/><text class="cls-3" transform="translate(2328.04 2897.87) rotate(90)">Hypostomus plecostomus</text><text class="cls-3" transform="translate(2445.08 3039.89) rotate(90)">Ara<tspan class="cls-4" x="36.68" y="0"> </tspan><tspan x="41.98" y="0">Ara</tspan></text><text class="cls-3" transform="translate(2646.08 3190.09) rotate(90)">Gorilla Gorilla</text><text class="cls-3" transform="translate(2491.08 2603.82) rotate(90)">Eda fa</text><text class="cls-3" transform="translate(2584.08 2604.09) rotate(90)">Gorilla Gorilla</text><text class="cls-3" transform="translate(2672.98 2627.67) rotate(90)">Lorem Ipsum</text><text class="cls-3" transform="translate(2752.56 2626.08) rotate(90)">Gorilla Gorilla</text><text class="cls-3" transform="translate(2817.56 2668.08) rotate(90)">Chibaku <tspan class="cls-4" x="92.9" y="0">T</tspan><tspan x="105.52" y="0">ensei</tspan></text><text class="cls-3" transform="translate(2892.56 2668.12) rotate(90)">Ara<tspan class="cls-4" x="36.68" y="0"> </tspan><tspan x="41.98" y="0">Ara</tspan></text><polyline class="cls-5" points="2677.17 2614.01 2677.17 2438.01 2717.17 2438.01 2717.17 2288.01 2790.17 2288.01 2790.17 2170.01 2590.17 2170.01 2364.65 2170.01"/><polyline class="cls-5" points="2717.17 2438.01 2755.17 2438.01 2755.17 2614.01"/><polyline class="cls-5" points="2790.17 2288.01 2865.17 2288.01 2865.17 2475.01 2827.17 2475.01 2827.17 2661.01"/><polyline class="cls-5" points="2865.17 2475.01 2900.17 2475.01 2900.17 2661.01"/><text class="cls-3" transform="translate(1595.58 2833.51) rotate(90)">ob fus</text><text class="cls-3" transform="translate(1812.58 3195.63) rotate(90)">Alces<tspan class="cls-4" x="58.71" y="0"> </tspan><tspan x="64" y="0">Alces</tspan></text><text class="cls-3" transform="translate(1970.58 3118.54) rotate(90)">Alouatta</text><text class="cls-3" transform="translate(2060.58 3051.54) rotate(90)">Ajaja<tspan class="cls-4" x="52.58" y="0"> </tspan><tspan x="57.88" y="0">Ajaja</tspan></text><text class="cls-3" transform="translate(1381.58 3202.54) rotate(90)">Amia Calva</text><text class="cls-3" transform="translate(1529.58 2948.54) rotate(90)">Alouatta</text><polyline class="cls-5" points="1391.15 3195.39 1391.15 2699.39 1483.15 2699.39 1483.15 2556.39 1685.15 2556.39 1685.15 2530.18 2221.65 2530.18"/><polyline class="cls-5" points="1685.15 2556.39 1979.15 2556.39 1979.15 3110.39"/><polyline class="cls-5" points="1979.15 2699.39 2115.15 2699.39 2115.15 2840.39 2062.15 2840.39 2062.15 3041.39"/><polyline class="cls-5" points="2115.15 2840.39 2184.15 2840.39 2184.15 3041.39"/><polyline class="cls-5" points="1979.15 2833.39 1763.15 2833.39 1763.15 2923.39 1619.15 2923.39 1619.15 3051.39 1718.15 3051.39 1718.15 3159.39 1633.15 3159.39 1633.15 3258.39 1580.15 3258.39 1580.15 3376.39"/><polyline class="cls-5" points="1763.15 2923.39 1882.15 2923.39 1882.15 3053.39 1822.15 3053.39 1822.15 3188.39"/><polyline class="cls-5" points="1882.15 3055.39 1923.15 3055.39 1923.15 3188.39"/><polyline class="cls-5" points="1619.15 3051.39 1521.15 3051.39 1521.15 3372.39"/><polyline class="cls-5" points="1633.15 3258.39 1676.15 3258.39 1676.15 3376.39"/><polyline class="cls-5" points="1718.15 3159.39 1763.15 3159.39 1763.15 3376.39"/><polyline class="cls-5" points="1391.15 2796.39 1496.15 2796.39 1496.15 2901.39 1466.15 2901.39 1466.15 2979.39"/><polyline class="cls-5" points="1496.15 2901.39 1536.15 2901.39 1536.15 2944.89"/><polyline class="cls-5" points="1391.15 3010.39 1428.15 3010.39 1428.15 3226.39"/><polyline class="cls-5" points="1428.15 3070.39 1460.15 3070.39 1460.15 3275.39"/><polyline class="cls-5" points="1483.15 2699.39 1644.15 2699.39 1644.15 2743.99 1604.15 2743.99 1604.15 2820.89"/><polyline class="cls-5" points="1644.15 2743.39 1693.15 2743.39 1693.15 2788.89"/><text class="cls-3" transform="matrix(-0.02, 1, -1, -0.02, 1689.29, 2809.42)">Ara<tspan class="cls-4" x="36.68" y="0"> </tspan><tspan x="41.98" y="0">Ara</tspan></text><text class="cls-3" transform="translate(1570.58 3386.56) rotate(90)">Chibaku <tspan class="cls-4" x="92.9" y="0">T</tspan><tspan x="105.52" y="0">ensei</tspan></text><text class="cls-3" transform="translate(1460.58 3286.05) rotate(90)">Mus musculus</text><text class="cls-3" transform="translate(1460.58 2979.51) rotate(90)">Eda fa</text><text class="cls-3" transform="translate(1668.58 3387.05) rotate(90)">Mus musculus</text><text class="cls-3" transform="translate(1419.58 3240.08) rotate(90)">Lorem Ipsum</text><text class="cls-3" transform="translate(1923.58 3195.63) rotate(90)">Hypostomus plecostomus</text><text class="cls-3" transform="translate(1763.58 3387.19) rotate(90)">Ompok Pabda</text><text class="cls-3" transform="translate(2177.58 3055.19) rotate(90)">Anoplogaster</text><text class="cls-3" transform="translate(2546.4 305.83) rotate(90)">ob fus</text><text class="cls-3" transform="translate(2763.4 667.95) rotate(90)">Alces<tspan class="cls-4" x="58.71" y="0"> </tspan><tspan x="64" y="0">Alces</tspan></text><text class="cls-3" transform="translate(2921.4 590.86) rotate(90)">Alouatta</text><text class="cls-3" transform="translate(3011.4 523.86) rotate(90)">Ajaja<tspan class="cls-4" x="52.58" y="0"> </tspan><tspan x="57.88" y="0">Ajaja</tspan></text><text class="cls-3" transform="translate(2332.4 674.86) rotate(90)">Amia Calva</text><text class="cls-3" transform="translate(2480.4 420.86) rotate(90)">Alouatta</text><polyline class="cls-5" points="2341.98 667.72 2341.98 171.72 2433.98 171.72 2433.98 28.72 2635.98 28.72 2635.98 2.5 3172.48 2.5"/><polyline class="cls-5" points="2635.98 28.72 2929.98 28.72 2929.98 582.72"/><polyline class="cls-5" points="2929.98 171.72 3065.98 171.72 3065.98 312.72 3012.98 312.72 3012.98 513.72"/><polyline class="cls-5" points="3065.98 312.72 3134.98 312.72 3134.98 513.72"/><polyline class="cls-5" points="2929.98 305.72 2713.98 305.72 2713.98 395.72 2569.98 395.72 2569.98 523.72 2668.98 523.72 2668.98 631.72 2583.98 631.72 2583.98 730.72 2530.98 730.72 2530.98 848.72"/><polyline class="cls-5" points="2713.98 395.72 2832.98 395.72 2832.98 525.72 2772.98 525.72 2772.98 660.72"/><polyline class="cls-5" points="2832.98 527.72 2873.98 527.72 2873.98 660.72"/><polyline class="cls-5" points="2569.98 523.72 2471.98 523.72 2471.98 844.72"/><polyline class="cls-5" points="2583.98 730.72 2626.98 730.72 2626.98 848.72"/><polyline class="cls-5" points="2668.98 631.72 2713.98 631.72 2713.98 848.72"/><polyline class="cls-5" points="2341.98 268.72 2446.98 268.72 2446.98 373.72 2416.98 373.72 2416.98 451.72"/><polyline class="cls-5" points="2446.98 373.72 2486.98 373.72 2486.98 417.22"/><polyline class="cls-5" points="2341.98 482.72 2378.98 482.72 2378.98 698.72"/><polyline class="cls-5" points="2378.98 542.72 2410.98 542.72 2410.98 747.72"/><polyline class="cls-5" points="2433.98 171.72 2594.98 171.72 2594.98 216.31 2554.98 216.31 2554.98 293.22"/><polyline class="cls-5" points="2594.98 215.72 2643.98 215.72 2643.98 261.22"/><text class="cls-3" transform="matrix(-0.02, 1, -1, -0.02, 2640.12, 281.74)">Ara<tspan class="cls-4" x="36.68" y="0"> </tspan><tspan x="41.98" y="0">Ara</tspan></text><text class="cls-3" transform="translate(2521.4 858.89) rotate(90)">Chibaku <tspan class="cls-4" x="92.9" y="0">T</tspan><tspan x="105.52" y="0">ensei</tspan></text><text class="cls-3" transform="translate(2411.4 758.37) rotate(90)">Mus musculus</text><text class="cls-3" transform="translate(2411.4 451.83) rotate(90)">Eda fa</text><text class="cls-3" transform="translate(2619.4 859.37) rotate(90)">Mus musculus</text><text class="cls-3" transform="translate(2370.4 712.41) rotate(90)">Lorem Ipsum</text><text class="cls-3" transform="translate(2874.4 667.95) rotate(90)">Hypostomus plecostomus</text><text class="cls-3" transform="translate(2714.4 859.51) rotate(90)">Ompok Pabda</text><text class="cls-3" transform="translate(3128.4 527.51) rotate(90)">Anoplogaster</text><text class="cls-3" transform="translate(1085.39 4527.47) rotate(90)">Hypostomus plecostomus</text><text class="cls-3" transform="translate(1617.42 3987.49) rotate(90)">ob fus</text><text class="cls-3" transform="translate(1329.42 4904.6) rotate(90)">Ompok Pabda</text><text class="cls-3" transform="translate(1834.42 4349.6) rotate(90)">Alces<tspan class="cls-4" x="58.71" y="0"> </tspan><tspan x="64" y="0">Alces</tspan></text><text class="cls-3" transform="translate(1154.42 4153.6) rotate(90)">Alouatta</text><text class="cls-3" transform="translate(1992.42 4272.51) rotate(90)">Alouatta</text><text class="cls-3" transform="translate(2082.42 4205.51) rotate(90)">Ajaja<tspan class="cls-4" x="52.58" y="0"> </tspan><tspan x="57.88" y="0">Ajaja</tspan></text><text class="cls-3" transform="translate(1248.42 4998.51) rotate(90)">Alouatta</text><text class="cls-3" transform="translate(1403.42 4356.51) rotate(90)">Amia Calva</text><text class="cls-3" transform="translate(1551.42 4102.51) rotate(90)">Alouatta</text><text class="cls-3" transform="translate(1131.39 4622.47) rotate(90)">Mus musculus</text><text class="cls-3" transform="translate(678.81 4255.03) rotate(90)">Lorem Ipsum</text><text class="cls-3" transform="translate(758.39 4253.44) rotate(90)">Gorilla Gorilla</text><text class="cls-3" transform="translate(823.39 4295.44) rotate(90)">Chibaku <tspan class="cls-4" x="92.9" y="0">T</tspan><tspan x="105.52" y="0">ensei</tspan></text><text class="cls-3" transform="translate(898.39 4295.48) rotate(90)">Ara<tspan class="cls-4" x="36.68" y="0"> </tspan><tspan x="41.98" y="0">Ara</tspan></text><text class="cls-3" transform="translate(976.39 4500.48) rotate(90)">Homo sapien</text><text class="cls-3" transform="translate(1040.39 4500.48) rotate(90)">Omaewamo Shindeiru</text><polyline class="cls-5" points="596 3797.37 796 3797.37 796 3915.37 723 3915.37 723 4065.37 683 4065.37 683 4241.37"/><polyline class="cls-5" points="723 4065.37 761 4065.37 761 4241.37"/><polyline class="cls-5" points="796 3915.37 871 3915.37 871 4102.37 833 4102.37 833 4288.37"/><polyline class="cls-5" points="871 4102.37 906 4102.37 906 4288.37"/><polyline class="cls-5" points="742 3710.37 1122 3710.37 1122 3870.37 1047 3870.37 1047 4041.37 979 4041.37 979 4488.37"/><line class="cls-5" x1="1047" y1="4041.37" x2="1047" y2="4488.37"/><polyline class="cls-5" points="1047 4164.37 1089 4164.37 1089 4520.37"/><polyline class="cls-5" points="1089 4288.37 1219 4288.37 1219 4368.37 1134 4368.37 1134 4612.37"/><polyline class="cls-5" points="1134 4450.37 1209 4450.37 1209 4666.37"/><polyline class="cls-5" points="1219 4368.37 1329 4368.37 1329 4530.37 1256 4530.37 1256 4753.37 1329 4753.37 1329 4898.37"/><polyline class="cls-5" points="1329 4530.37 1413 4530.37 1413 4809.37"/><line class="cls-5" x1="1256" y1="4753.37" x2="1256" y2="4988.37"/><polyline class="cls-5" points="1122 3870.37 1226 3870.37 1226 3950.37 1154 3950.37 1154 4146.37"/><polyline class="cls-5" points="1226 3950.37 1298 3950.37 1298 4065.37 1255 4065.37 1255 4224.37"/><polyline class="cls-5" points="1298 4065.37 1341 4065.37 1341 4224.37"/><polyline class="cls-5" points="1707 3710.37 2001 3710.37 2001 4264.37"/><polyline class="cls-5" points="2001 3853.37 2137 3853.37 2137 3994.37 2084 3994.37 2084 4195.37"/><polyline class="cls-5" points="2137 3994.37 2206 3994.37 2206 4195.37"/><polyline class="cls-5" points="2001 3987.37 1785 3987.37 1785 4077.37 1641 4077.37 1641 4205.37 1740 4205.37 1740 4313.37 1655 4313.37 1655 4412.37 1602 4412.37 1602 4530.37"/><polyline class="cls-5" points="1785 4077.37 1904 4077.37 1904 4207.37 1844 4207.37 1844 4342.37"/><polyline class="cls-5" points="1904 4209.37 1945 4209.37 1945 4342.37"/><polyline class="cls-5" points="1641 4205.37 1543 4205.37 1543 4526.37"/><polyline class="cls-5" points="1655 4412.37 1698 4412.37 1698 4530.37"/><polyline class="cls-5" points="1740 4313.37 1785 4313.37 1785 4530.37"/><polyline class="cls-5" points="1413 3950.37 1518 3950.37 1518 4055.37 1488 4055.37 1488 4133.37"/><polyline class="cls-5" points="1518 4055.37 1558 4055.37 1558 4098.87"/><polyline class="cls-5" points="1413 4164.37 1450 4164.37 1450 4380.37"/><polyline class="cls-5" points="1450 4224.37 1482 4224.37 1482 4429.37"/><polyline class="cls-5" points="1505 3853.37 1666 3853.37 1666 3897.96 1626 3897.96 1626 3974.87"/><polyline class="cls-5" points="1666 3897.37 1715 3897.37 1715 3942.87"/><text class="cls-3" transform="translate(1085.39 4527.47) rotate(90)">Hypostomus plecostomus</text><text class="cls-3" transform="translate(1202.42 4669.49) rotate(90)">Ara<tspan class="cls-4" x="36.68" y="0"> </tspan><tspan x="41.98" y="0">Ara</tspan></text><text class="cls-3" transform="translate(1403.42 4819.69) rotate(90)">Gorilla Gorilla</text><text class="cls-3" transform="matrix(-0.02, 1, -1, -0.02, 1711.14, 3963.4)">Ara<tspan class="cls-4" x="36.68" y="0"> </tspan><tspan x="41.98" y="0">Ara</tspan></text><text class="cls-3" transform="translate(1592.42 4540.54) rotate(90)">Chibaku <tspan class="cls-4" x="92.9" y="0">T</tspan><tspan x="105.52" y="0">ensei</tspan></text><text class="cls-3" transform="translate(1482.42 4440.03) rotate(90)">Mus musculus</text><text class="cls-3" transform="translate(1482.42 4133.49) rotate(90)">Eda fa</text><text class="cls-3" transform="translate(1248.42 4233.42) rotate(90)">Eda fa</text><text class="cls-3" transform="translate(1341.42 4233.69) rotate(90)">Gorilla Gorilla</text><text class="cls-3" transform="translate(1690.42 4541.03) rotate(90)">Mus musculus</text><text class="cls-3" transform="translate(1441.42 4394.06) rotate(90)">Lorem Ipsum</text><text class="cls-3" transform="translate(1945.42 4349.6) rotate(90)">Hypostomus plecostomus</text><text class="cls-3" transform="translate(1785.42 4541.16) rotate(90)">Ompok Pabda</text><text class="cls-3" transform="translate(2199.42 4209.16) rotate(90)">Anoplogaster</text><text class="cls-6" transform="matrix(0, 0.88, -1, 0, 327.73, 4720.21)">ob fus</text><text class="cls-6" transform="matrix(0, 0.88, -1, 0, 574.31, 5082.47)">Alces<tspan class="cls-7" x="66.71" y="0"> </tspan><tspan x="72.73" y="0">Alces</tspan></text><text class="cls-6" transform="matrix(0, 0.88, -1, 0, 753.85, 5005.35)">Alouatta</text><text class="cls-6" transform="matrix(0, 0.88, -1, 0, 856.11, 4938.33)">Ajaja<tspan class="cls-7" x="59.75" y="0"> </tspan><tspan x="65.77" y="0">Ajaja</tspan></text><text class="cls-6" transform="matrix(0, 0.88, -1, 0, 84.57, 5089.38)">Amia Calva</text><text class="cls-6" transform="matrix(0, 0.88, -1, 0, 252.74, 4835.29)">Alouatta</text><polyline class="cls-5" points="0 4118.87 429.52 4118.87 429.52 4442.99 199.99 4442.99 199.99 4586.05 95.45 4586.05 95.45 5082.23"/><polyline class="cls-5" points="429.52 4442.99 763.59 4442.99 763.59 4997.2"/><polyline class="cls-5" points="763.59 4586.05 918.13 4586.05 918.13 4727.1 857.9 4727.1 857.9 4928.18"/><polyline class="cls-5" points="918.13 4727.1 996.53 4727.1 996.53 4928.18"/><polyline class="cls-5" points="763.59 4720.1 518.15 4720.1 518.15 4810.13 354.52 4810.13 354.52 4938.18 467.02 4938.18 467.02 5046.22 370.43 5046.22 370.43 5145.26 310.21 5145.26 310.21 5263.3"/><polyline class="cls-5" points="518.15 4810.13 653.37 4810.13 653.37 4940.18 585.19 4940.18 585.19 5075.23"/><polyline class="cls-5" points="653.37 4942.18 699.96 4942.18 699.96 5075.23"/><polyline class="cls-5" points="354.52 4938.18 243.17 4938.18 243.17 5259.3"/><polyline class="cls-5" points="370.43 5145.26 419.29 5145.26 419.29 5263.3"/><polyline class="cls-5" points="467.02 5046.22 518.15 5046.22 518.15 5263.3"/><polyline class="cls-5" points="95.45 4683.08 214.76 4683.08 214.76 4788.12 180.67 4788.12 180.67 4866.15"/><polyline class="cls-5" points="214.76 4788.12 260.21 4788.12 260.21 4831.64"/><polyline class="cls-5" points="95.45 4897.16 137.49 4897.16 137.49 5113.25"/><polyline class="cls-5" points="199.99 4586.05 382.93 4586.05 382.93 4630.66 337.48 4630.66 337.48 4707.59"/><polyline class="cls-5" points="382.93 4630.06 438.61 4630.06 438.61 4675.58"/><text class="cls-8" transform="matrix(-0.02, 0.88, -1, -0.02, 434.23, 4696.11)">Ara<tspan class="cls-9" x="41.68" y="0"> </tspan><tspan x="47.7" y="0">Ara</tspan></text><text class="cls-6" transform="matrix(0, 0.88, -1, 0, 299.33, 5273.48)">Chibaku <tspan class="cls-10" x="105.56" y="0">T</tspan><tspan x="119.9" y="0">ensei</tspan></text><text class="cls-6" transform="matrix(0, 0.88, -1, 0, 174.34, 5172.93)">Mus musculus</text><text class="cls-6" transform="matrix(0, 0.88, -1, 0, 174.34, 4866.27)">Eda fa</text><text class="cls-6" transform="matrix(0, 0.88, -1, 0, 410.69, 5273.96)">Mus musculus</text><text class="cls-6" transform="matrix(0, 0.88, -1, 0, 127.75, 5126.94)">Lorem Ipsum</text><text class="cls-6" transform="matrix(0, 0.88, -1, 0, 700.44, 5082.47)">Hypostomus plecostomus</text><text class="cls-6" transform="matrix(0, 0.88, -1, 0, 518.63, 5274.1)">Ompok Pabda</text><text class="cls-6" transform="matrix(0, 0.88, -1, 0, 989.06, 4941.98)">Anoplogaster</text><text class="cls-3" transform="translate(1754.21 5525.13) rotate(90)">Hypostomus plecostomus</text><text class="cls-3" transform="translate(1998.25 5902.26) rotate(90)">Ompok Pabda</text><text class="cls-3" transform="translate(1823.25 5151.26) rotate(90)">Alouatta</text><text class="cls-3" transform="translate(1917.25 5996.18) rotate(90)">Alouatta</text><text class="cls-3" transform="translate(1800.21 5620.13) rotate(90)">Mus musculus</text><text class="cls-3" transform="translate(1645.21 5498.14) rotate(90)">Homo sapien</text><text class="cls-3" transform="translate(1709.21 5498.14) rotate(90)">Omaewamo Shindeiru</text><polyline class="cls-5" points="1410.82 4708.03 1790.82 4708.03 1790.82 4868.03 1715.82 4868.03 1715.82 5039.03 1647.82 5039.03 1647.82 5486.03"/><line class="cls-5" x1="1715.82" y1="5039.03" x2="1715.82" y2="5486.03"/><polyline class="cls-5" points="1715.82 5162.03 1757.82 5162.03 1757.82 5518.03"/><polyline class="cls-5" points="1757.82 5286.03 1887.82 5286.03 1887.82 5366.03 1802.82 5366.03 1802.82 5610.03"/><polyline class="cls-5" points="1802.82 5448.03 1877.82 5448.03 1877.82 5664.03"/><polyline class="cls-5" points="1887.82 5366.03 1997.82 5366.03 1997.82 5528.03 1924.82 5528.03 1924.82 5751.03 1997.82 5751.03 1997.82 5896.03"/><polyline class="cls-5" points="1997.82 5528.03 2081.82 5528.03 2081.82 5807.03"/><line class="cls-5" x1="1924.82" y1="5751.03" x2="1924.82" y2="5986.03"/><polyline class="cls-5" points="1790.82 4868.03 1894.82 4868.03 1894.82 4948.03 1822.82 4948.03 1822.82 5144.03"/><polyline class="cls-5" points="1894.82 4948.03 1966.82 4948.03 1966.82 5063.03 1923.82 5063.03 1923.82 5222.03"/><polyline class="cls-5" points="1966.82 5063.03 2009.82 5063.03 2009.82 5222.03"/><text class="cls-3" transform="translate(1754.21 5525.13) rotate(90)">Hypostomus plecostomus</text><text class="cls-3" transform="translate(1871.25 5667.15) rotate(90)">Ara<tspan class="cls-4" x="36.68" y="0"> </tspan><tspan x="41.98" y="0">Ara</tspan></text><text class="cls-3" transform="translate(2072.25 5817.35) rotate(90)">Gorilla Gorilla</text><text class="cls-3" transform="translate(1917.25 5231.08) rotate(90)">Eda fa</text><text class="cls-3" transform="translate(2010.25 5231.35) rotate(90)">Gorilla Gorilla</text><text class="cls-3" transform="translate(2099.15 5254.93) rotate(90)">Lorem Ipsum</text><text class="cls-3" transform="translate(2178.73 5253.34) rotate(90)">Gorilla Gorilla</text><text class="cls-3" transform="translate(2243.73 5295.34) rotate(90)">Chibaku <tspan class="cls-4" x="92.9" y="0">T</tspan><tspan x="105.52" y="0">ensei</tspan></text><text class="cls-3" transform="translate(2318.73 5295.38) rotate(90)">Ara<tspan class="cls-4" x="36.68" y="0"> </tspan><tspan x="41.98" y="0">Ara</tspan></text><polyline class="cls-5" points="2103.34 5241.27 2103.34 5065.27 2143.34 5065.27 2143.34 4915.27 2216.34 4915.27 2216.34 4797.27 2016.34 4797.27 1790.82 4797.27"/><polyline class="cls-5" points="2143.34 5065.27 2181.34 5065.27 2181.34 5241.27"/><polyline class="cls-5" points="2216.34 4915.27 2291.34 4915.27 2291.34 5102.27 2253.34 5102.27 2253.34 5288.27"/><polyline class="cls-5" points="2291.34 5102.27 2326.34 5102.27 2326.34 5288.27"/><text class="cls-3" transform="translate(1021.75 5460.77) rotate(90)">ob fus</text><text class="cls-3" transform="translate(1238.75 5822.89) rotate(90)">Alces<tspan class="cls-4" x="58.71" y="0"> </tspan><tspan x="64" y="0">Alces</tspan></text><text class="cls-3" transform="translate(1396.75 5745.8) rotate(90)">Alouatta</text><text class="cls-3" transform="translate(1486.75 5678.8) rotate(90)">Ajaja<tspan class="cls-4" x="52.58" y="0"> </tspan><tspan x="57.88" y="0">Ajaja</tspan></text><text class="cls-3" transform="translate(807.75 5829.8) rotate(90)">Amia Calva</text><text class="cls-3" transform="translate(955.75 5575.8) rotate(90)">Alouatta</text><polyline class="cls-5" points="817.32 5822.65 817.32 5326.65 909.32 5326.65 909.32 5183.65 1111.32 5183.65 1111.32 5157.44 1647.82 5157.44"/><polyline class="cls-5" points="1111.32 5183.65 1405.32 5183.65 1405.32 5737.65"/><polyline class="cls-5" points="1405.32 5326.65 1541.32 5326.65 1541.32 5467.65 1488.32 5467.65 1488.32 5668.65"/><polyline class="cls-5" points="1541.32 5467.65 1610.32 5467.65 1610.32 5668.65"/><polyline class="cls-5" points="1405.32 5460.65 1189.32 5460.65 1189.32 5550.65 1045.32 5550.65 1045.32 5678.65 1144.32 5678.65 1144.32 5786.65 1059.32 5786.65 1059.32 5885.65 1006.32 5885.65 1006.32 6003.65"/><polyline class="cls-5" points="1189.32 5550.65 1308.32 5550.65 1308.32 5680.65 1248.32 5680.65 1248.32 5815.65"/><polyline class="cls-5" points="1308.32 5682.65 1349.32 5682.65 1349.32 5815.65"/><polyline class="cls-5" points="1045.32 5678.65 947.32 5678.65 947.32 5999.65"/><polyline class="cls-5" points="1059.32 5885.65 1102.32 5885.65 1102.32 6003.65"/><polyline class="cls-5" points="1144.32 5786.65 1189.32 5786.65 1189.32 6003.65"/><polyline class="cls-5" points="817.32 5423.65 922.32 5423.65 922.32 5528.65 892.32 5528.65 892.32 5606.65"/><polyline class="cls-5" points="922.32 5528.65 962.32 5528.65 962.32 5572.15"/><polyline class="cls-5" points="817.32 5637.65 854.32 5637.65 854.32 5853.65"/><polyline class="cls-5" points="854.32 5697.65 886.32 5697.65 886.32 5902.65"/><polyline class="cls-5" points="909.32 5326.65 1070.32 5326.65 1070.32 5371.24 1030.32 5371.24 1030.32 5448.15"/><polyline class="cls-5" points="1070.32 5370.65 1119.32 5370.65 1119.32 5416.15"/><text class="cls-3" transform="matrix(-0.02, 1, -1, -0.02, 1115.46, 5436.68)">Ara<tspan class="cls-4" x="36.68" y="0"> </tspan><tspan x="41.98" y="0">Ara</tspan></text><text class="cls-3" transform="translate(996.75 6013.82) rotate(90)">Chibaku <tspan class="cls-4" x="92.9" y="0">T</tspan><tspan x="105.52" y="0">ensei</tspan></text><text class="cls-3" transform="translate(886.75 5913.31) rotate(90)">Mus musculus</text><text class="cls-3" transform="translate(886.75 5606.77) rotate(90)">Eda fa</text><text class="cls-3" transform="translate(1094.75 6014.31) rotate(90)">Mus musculus</text><text class="cls-3" transform="translate(845.75 5867.34) rotate(90)">Lorem Ipsum</text><text class="cls-3" transform="translate(1349.75 5822.89) rotate(90)">Hypostomus plecostomus</text><text class="cls-3" transform="translate(1189.75 6014.45) rotate(90)">Ompok Pabda</text><text class="cls-3" transform="translate(1603.75 5682.45) rotate(90)">Anoplogaster</text><polyline class="cls-5" points="1391.15 2887.89 1189.83 2887.89 1189.83 3570.11 746.83 3570.11 747 3668.05 747 3710.37 596 3710.37 596 3797.37 413 3797.37"/><polyline class="cls-5" points="1189.83 3570.11 1704.83 3570.11 1707 3668.05 1707 3710.37 1505 3710.37 1505 3853.37 1413 3853.37 1413 4349.37"/><polyline class="cls-5" points="2498.65 3241.27 2407.83 3241.27 2407.83 3518.11"/><text class="cls-3" transform="translate(2498.27 4122.9) rotate(90)">ob fus</text><text class="cls-3" transform="translate(2715.27 4485.02) rotate(90)">Alces<tspan class="cls-4" x="58.71" y="0"> </tspan><tspan x="64" y="0">Alces</tspan></text><text class="cls-3" transform="translate(2873.27 4407.93) rotate(90)">Alouatta</text><text class="cls-3" transform="translate(2963.27 4340.93) rotate(90)">Ajaja<tspan class="cls-4" x="52.58" y="0"> </tspan><tspan x="57.88" y="0">Ajaja</tspan></text><text class="cls-3" transform="translate(2284.27 4491.93) rotate(90)">Amia Calva</text><text class="cls-3" transform="translate(2432.27 4237.93) rotate(90)">Alouatta</text><polyline class="cls-5" points="2242.85 3521.78 2587.85 3521.78 2587.85 3845.78 2385.85 3845.78 2385.85 3988.78 2293.85 3988.78 2293.85 4484.78"/><polyline class="cls-5" points="2587.85 3845.78 2881.85 3845.78 2881.85 4399.78"/><polyline class="cls-5" points="2881.85 3988.78 3017.85 3988.78 3017.85 4129.78 2964.85 4129.78 2964.85 4330.78"/><polyline class="cls-5" points="3017.85 4129.78 3086.85 4129.78 3086.85 4330.78"/><polyline class="cls-5" points="2881.85 4122.78 2665.85 4122.78 2665.85 4212.78 2521.85 4212.78 2521.85 4340.78 2620.85 4340.78 2620.85 4448.78 2535.85 4448.78 2535.85 4547.78 2482.85 4547.78 2482.85 4665.78"/><polyline class="cls-5" points="2665.85 4212.78 2784.85 4212.78 2784.85 4342.78 2724.85 4342.78 2724.85 4477.78"/><polyline class="cls-5" points="2784.85 4344.78 2825.85 4344.78 2825.85 4477.78"/><polyline class="cls-5" points="2521.85 4340.78 2423.85 4340.78 2423.85 4661.78"/><polyline class="cls-5" points="2535.85 4547.78 2578.85 4547.78 2578.85 4665.78"/><polyline class="cls-5" points="2620.85 4448.78 2665.85 4448.78 2665.85 4665.78"/><polyline class="cls-5" points="2293.85 4085.78 2398.85 4085.78 2398.85 4190.78 2368.85 4190.78 2368.85 4268.78"/><polyline class="cls-5" points="2398.85 4190.78 2438.85 4190.78 2438.85 4234.28"/><polyline class="cls-5" points="2293.85 4299.78 2330.85 4299.78 2330.85 4515.78"/><polyline class="cls-5" points="2330.85 4359.78 2362.85 4359.78 2362.85 4564.78"/><polyline class="cls-5" points="2385.85 3988.78 2546.85 3988.78 2546.85 4033.38 2506.85 4033.38 2506.85 4110.28"/><polyline class="cls-5" points="2546.85 4032.78 2595.85 4032.78 2595.85 4078.28"/><text class="cls-3" transform="matrix(-0.02, 1, -1, -0.02, 2591.99, 4098.81)">Ara<tspan class="cls-4" x="36.68" y="0"> </tspan><tspan x="41.98" y="0">Ara</tspan></text><text class="cls-3" transform="translate(2473.27 4675.95) rotate(90)">Chibaku <tspan class="cls-4" x="92.9" y="0">T</tspan><tspan x="105.52" y="0">ensei</tspan></text><text class="cls-3" transform="translate(2363.27 4575.44) rotate(90)">Mus musculus</text><text class="cls-3" transform="translate(2363.27 4268.9) rotate(90)">Eda fa</text><text class="cls-3" transform="translate(2571.27 4676.44) rotate(90)">Mus musculus</text><text class="cls-3" transform="translate(2322.27 4529.47) rotate(90)">Lorem Ipsum</text><text class="cls-3" transform="translate(2826.27 4485.02) rotate(90)">Hypostomus plecostomus</text><text class="cls-3" transform="translate(2666.27 4676.58) rotate(90)">Ompok Pabda</text><text class="cls-3" transform="translate(3080.27 4344.58) rotate(90)">Anoplogaster</text><text class="cls-3" transform="translate(2188.27 3817.15) rotate(90)">Ajaja<tspan class="cls-4" x="52.58" y="0"> </tspan><tspan x="57.88" y="0">Ajaja</tspan></text><polyline class="cls-5" points="2242.85 3521.78 2242.85 3606.01 2189.85 3606.01 2189.85 3807.01"/><polyline class="cls-5" points="2242.85 3606.01 2311.85 3606.01 2311.85 3807.01"/><text class="cls-3" transform="translate(2305.27 3820.8) rotate(90)">Anoplogaster</text><text class="cls-11" transform="matrix(0, 1.04, 1, 0, 3231.43, 6321.1)">Hypostomus plecostomus</text><text class="cls-11" transform="matrix(0, 1.04, 1, 0, 2720.9, 5781.12)">ob fus</text><text class="cls-11" transform="matrix(0, 1.04, 1, 0, 2997.26, 6698.23)">Ompok Pabda</text><text class="cls-11" transform="matrix(0, 1.04, 1, 0, 2512.68, 6143.23)">Alces<tspan class="cls-12" x="56.33" y="0"> </tspan><tspan x="61.41" y="0">Alces</tspan></text><text class="cls-11" transform="matrix(0, 1.04, 1, 0, 3165.18, 5947.23)">Alouatta</text><text class="cls-11" transform="matrix(0, 1.04, 1, 0, 2361.07, 6066.14)">Alouatta</text><text class="cls-11" transform="matrix(0, 1.04, 1, 0, 2274.71, 5999.14)">Ajaja<tspan class="cls-12" x="50.46" y="0"> </tspan><tspan x="55.54" y="0">Ajaja</tspan></text><text class="cls-11" transform="matrix(0, 1.04, 1, 0, 3074.98, 6792.14)">Alouatta</text><text class="cls-11" transform="matrix(0, 1.04, 1, 0, 2926.25, 6150.14)">Amia Calva</text><text class="cls-11" transform="matrix(0, 1.04, 1, 0, 2784.24, 5896.14)">Alouatta</text><text class="cls-11" transform="matrix(0, 1.04, 1, 0, 3187.29, 6416.1)">Mus musculus</text><text class="cls-11" transform="matrix(0, 1.04, 1, 0, 3621.57, 6048.66)">Lorem Ipsum</text><text class="cls-11" transform="matrix(0, 1.04, 1, 0, 3545.21, 6047.07)">Gorilla Gorilla</text><text class="cls-11" transform="matrix(0, 1.04, 1, 0, 3482.84, 6089.07)">Chibaku <tspan class="cls-12" x="89.14" y="0">T</tspan><tspan x="101.25" y="0">ensei</tspan></text><text class="cls-11" transform="matrix(0, 1.04, 1, 0, 3410.87, 6089.11)">Ara<tspan class="cls-12" x="35.2" y="0"> </tspan><tspan x="40.28" y="0">Ara</tspan></text><text class="cls-11" transform="matrix(0, 1.04, 1, 0, 3336.02, 6294.11)">Homo sapien</text><text class="cls-11" transform="matrix(0, 1.04, 1, 0, 3274.61, 6294.11)">Omaewamo Shindeiru</text><polyline class="cls-5" points="2997.67 4970 2997.67 5180 3556.13 5180 3556.13 5504 3701.03 5504 3701.03 5591 3876.63 5591"/><polyline class="cls-5" points="3701.03 5591 3509.12 5591 3509.12 5709 3579.16 5709 3579.16 5859 3617.55 5859 3617.55 6035"/><polyline class="cls-5" points="3579.16 5859 3542.7 5859 3542.7 6035"/><polyline class="cls-5" points="3509.12 5709 3437.15 5709 3437.15 5896 3473.61 5896 3473.61 6082"/><polyline class="cls-5" points="3437.15 5896 3403.56 5896 3403.56 6082"/><polyline class="cls-5" points="3560.93 5504 3196.3 5504 3196.3 5664 3268.26 5664 3268.26 5835 3333.51 5835 3333.51 6282"/><line class="cls-5" x1="3268.26" y1="5835" x2="3268.26" y2="6282"/><polyline class="cls-5" points="3268.26 5958 3227.96 5958 3227.96 6314"/><polyline class="cls-5" points="3227.96 6082 3103.22 6082 3103.22 6162 3184.78 6162 3184.78 6406"/><polyline class="cls-5" points="3184.78 6244 3112.81 6244 3112.81 6460"/><polyline class="cls-5" points="3103.22 6162 2997.67 6162 2997.67 6324 3067.72 6324 3067.72 6547 2997.67 6547 2997.67 6692"/><polyline class="cls-5" points="2997.67 6324 2917.06 6324 2917.06 6603"/><line class="cls-5" x1="3067.71" y1="6547" x2="3067.71" y2="6782"/><polyline class="cls-5" points="3196.3 5664 3096.5 5664 3096.5 5744 3165.59 5744 3165.59 5940"/><polyline class="cls-5" points="3096.5 5744 3027.41 5744 3027.41 5859 3068.67 5859 3068.67 6018"/><polyline class="cls-5" points="3027.41 5859 2986.15 5859 2986.15 6018"/><polyline class="cls-5" points="2997.67 5180 2634.95 5180 2634.95 5504 2828.78 5504 2828.78 5647 2917.06 5647 2917.06 6143"/><polyline class="cls-5" points="2634.95 5504 2352.84 5504 2352.84 6058"/><polyline class="cls-5" points="2352.84 5647 2222.34 5647 2222.34 5788 2273.19 5788 2273.19 5989"/><polyline class="cls-5" points="2222.34 5788 2156.13 5788 2156.13 5989"/><polyline class="cls-5" points="2352.84 5781 2560.1 5781 2560.1 5871 2698.28 5871 2698.28 5999 2603.28 5999 2603.28 6107 2684.85 6107 2684.85 6206 2735.7 6206 2735.7 6324"/><polyline class="cls-5" points="2560.1 5871 2445.91 5871 2445.91 6001 2503.49 6001 2503.49 6136"/><polyline class="cls-5" points="2445.91 6003 2406.57 6003 2406.57 6136"/><polyline class="cls-5" points="2698.28 5999 2792.32 5999 2792.32 6320"/><polyline class="cls-5" points="2684.85 6206 2643.59 6206 2643.59 6324"/><polyline class="cls-5" points="2603.28 6107 2560.1 6107 2560.1 6324"/><polyline class="cls-5" points="2917.06 5744 2816.31 5744 2816.31 5849 2845.09 5849 2845.09 5927"/><polyline class="cls-5" points="2816.31 5849 2777.93 5849 2777.93 5892.5"/><polyline class="cls-5" points="2917.06 5958 2881.56 5958 2881.56 6174"/><polyline class="cls-5" points="2881.56 6018 2850.85 6018 2850.85 6223"/><polyline class="cls-5" points="2828.78 5647 2674.29 5647 2674.29 5691.59 2712.68 5691.59 2712.68 5768.5"/><polyline class="cls-5" points="2674.29 5691 2627.27 5691 2627.27 5736.5"/><text class="cls-11" transform="matrix(0, 1.04, 1, 0, 3231.43, 6321.1)">Hypostomus plecostomus</text><text class="cls-11" transform="matrix(0, 1.04, 1, 0, 3119.12, 6463.12)">Ara<tspan class="cls-12" x="35.2" y="0"> </tspan><tspan x="40.28" y="0">Ara</tspan></text><text class="cls-11" transform="matrix(0, 1.04, 1, 0, 2926.25, 6613.32)">Gorilla Gorilla</text><text class="cls-13" transform="matrix(0.02, 1.04, 1, -0.02, 2630.98, 5757.03)">Ara<tspan class="cls-14" x="35.2" y="0"> </tspan><tspan x="40.28" y="0">Ara</tspan></text><text class="cls-11" transform="matrix(0, 1.04, 1, 0, 2744.89, 6334.17)">Chibaku <tspan class="cls-12" x="89.14" y="0">T</tspan><tspan x="101.25" y="0">ensei</tspan></text><text class="cls-11" transform="matrix(0, 1.04, 1, 0, 2850.45, 6233.66)">Mus musculus</text><text class="cls-11" transform="matrix(0, 1.04, 1, 0, 2850.45, 5927.12)">Eda fa</text><text class="cls-11" transform="matrix(0, 1.04, 1, 0, 3074.98, 6027.05)">Eda fa</text><text class="cls-11" transform="matrix(0, 1.04, 1, 0, 2985.75, 6027.32)">Gorilla Gorilla</text><text class="cls-11" transform="matrix(0, 1.04, 1, 0, 2650.86, 6334.66)">Mus musculus</text><text class="cls-11" transform="matrix(0, 1.04, 1, 0, 2889.79, 6187.69)">Lorem Ipsum</text><text class="cls-11" transform="matrix(0, 1.04, 1, 0, 2406.17, 6143.23)">Hypostomus plecostomus</text><text class="cls-11" transform="matrix(0, 1.04, 1, 0, 2559.7, 6334.79)">Ompok Pabda</text><text class="cls-11" transform="matrix(0, 1.04, 1, 0, 2162.44, 6002.79)">Anoplogaster</text><text class="cls-3" transform="translate(2111.73 1902.86) rotate(90)">Gorilla Gorilla</text><text class="cls-3" transform="translate(1529.73 4540.12) rotate(90)">Gorilla Gorilla</text></g></g></svg>